HIERARCHY
ROOT Hips
{
	OFFSET 0.00000 0.00000 0.00000
	CHANNELS 6 Xposition Yposition Zposition Zrotation Yrotation Xrotation 
	JOINT LHipJoint
	{
		OFFSET 0 0 0
		CHANNELS 3 Zrotation Yrotation Xrotation
		JOINT LeftUpLeg
		{
			OFFSET 1.58895 -1.83665 0.71753
			CHANNELS 3 Zrotation Yrotation Xrotation
			JOINT LeftLeg
			{
				OFFSET 2.50528 -6.88321 0.00000
				CHANNELS 3 Zrotation Yrotation Xrotation
				JOINT LeftFoot
				{
					OFFSET 2.63244 -7.23257 0.00000
					CHANNELS 3 Zrotation Yrotation Xrotation
					JOINT LeftToeBase
					{
						OFFSET 0.23691 -0.65090 1.72750
						CHANNELS 3 Zrotation Yrotation Xrotation
						End Site
						{
							OFFSET 0.00000 -0.00000 0.92561
						}
					}
				}
			}
		}
	}
	JOINT RHipJoint
	{
		OFFSET 0 0 0
		CHANNELS 3 Zrotation Yrotation Xrotation
		JOINT RightUpLeg
		{
			OFFSET -1.51435 -1.83665 0.71753
			CHANNELS 3 Zrotation Yrotation Xrotation
			JOINT RightLeg
			{
				OFFSET -2.54551 -6.99375 0.00000
				CHANNELS 3 Zrotation Yrotation Xrotation
				JOINT RightFoot
				{
					OFFSET -2.66027 -7.30903 0.00000
					CHANNELS 3 Zrotation Yrotation Xrotation
					JOINT RightToeBase
					{
						OFFSET -0.22981 -0.63138 2.03959
						CHANNELS 3 Zrotation Yrotation Xrotation
						End Site
						{
							OFFSET -0.00000 -0.00000 1.07060
						}
					}
				}
			}
		}
	}
	JOINT LowerBack
	{
		OFFSET 0 0 0
		CHANNELS 3 Zrotation Yrotation Xrotation
		JOINT Spine
		{
			OFFSET -0.02651 1.86275 -0.11152
			CHANNELS 3 Zrotation Yrotation Xrotation
			JOINT Spine1
			{
				OFFSET 0.01019 1.86224 0.04087
				CHANNELS 3 Zrotation Yrotation Xrotation
				JOINT Neck
				{
					OFFSET 0 0 0
					CHANNELS 3 Zrotation Yrotation Xrotation
					JOINT Neck1
					{
						OFFSET -0.01926 1.80512 0.08867
						CHANNELS 3 Zrotation Yrotation Xrotation
						JOINT Head
						{
							OFFSET 0.05516 1.76451 -0.38475
							CHANNELS 3 Zrotation Yrotation Xrotation
							End Site
							{
								OFFSET 0.01592 1.82587 -0.14001
							}
						}
					}
				}
				JOINT LeftShoulder
				{
					OFFSET 0 0 0
					CHANNELS 3 Zrotation Yrotation Xrotation
					JOINT LeftArm
					{
						OFFSET 3.47116 1.51376 0.14491
						CHANNELS 3 Zrotation Yrotation Xrotation
						JOINT LeftForeArm
						{
							OFFSET 4.78095 -0.00000 0.00000
							CHANNELS 3 Zrotation Yrotation Xrotation
							JOINT LeftHand
							{
								OFFSET 3.58615 -0.00000 -0.00000
								CHANNELS 3 Zrotation Yrotation Xrotation
								JOINT LeftFingerBase
								{
									OFFSET 0 0 0
									CHANNELS 3 Zrotation Yrotation Xrotation
									JOINT LeftHandIndex1
									{
										OFFSET 0.65981 -0.00000 0.00000
										CHANNELS 3 Zrotation Yrotation Xrotation
										End Site
										{
											OFFSET 0.53196 -0.00000 0.00000
										}
									}
								}
								JOINT LThumb
								{
									OFFSET 0 0 0
									CHANNELS 3 Zrotation Yrotation Xrotation
									End Site
									{
										OFFSET 0.54008 -0.00000 0.54008
									}
								}
							}
						}
					}
				}
				JOINT RightShoulder
				{
					OFFSET 0 0 0
					CHANNELS 3 Zrotation Yrotation Xrotation
					JOINT RightArm
					{
						OFFSET -3.31725 1.61216 0.35156
						CHANNELS 3 Zrotation Yrotation Xrotation
						JOINT RightForeArm
						{
							OFFSET -4.48913 -0.00000 0.00000
							CHANNELS 3 Zrotation Yrotation Xrotation
							JOINT RightHand
							{
								OFFSET -3.70510 -0.00000 0.00000
								CHANNELS 3 Zrotation Yrotation Xrotation
								JOINT RightFingerBase
								{
									OFFSET 0 0 0
									CHANNELS 3 Zrotation Yrotation Xrotation
									JOINT RightHandIndex1
									{
										OFFSET -0.44914 -0.00000 0.00000
										CHANNELS 3 Zrotation Yrotation Xrotation
										End Site
										{
											OFFSET -0.36211 -0.00000 0.00000
										}
									}
								}
								JOINT RThumb
								{
									OFFSET 0 0 0
									CHANNELS 3 Zrotation Yrotation Xrotation
									End Site
									{
										OFFSET -0.36763 -0.00000 0.36763
									}
								}
							}
						}
					}
				}
			}
		}
	}
}
MOTION
Frames: 5
Frame Time: .0083333
-0.8811 17.8776 5.7516 -10.8506 -60.0582 4.6453 0.0000 0.0000 0.0000 -12.2773 23.4101 23.4758 0.6698 -5.2337 -14.5765 -1.3767 27.4563 -30.3241 0.0924 1.9607 5.3971 0.0000 0.0000 0.0000 22.3300 9.7579 14.6636 -0.8961 6.0333 -16.8809 -1.4645 -2.4709 22.2119 -1.9421 -8.7443 24.9988 3.9090 -6.3068 10.3400 3.3330 -7.7486 -0.8688 2.5836 -3.8925 -6.7418 18.2922 11.5728 -18.0749 -9.1840 13.0677 19.5532 -4.1459 6.3550 11.1754 -0.0000 0.0000 0.0000 -30.6129 -35.1899 -49.3752 20.2096 -30.8941 -5.6386 -0.0000 0.0000 -29.9899 18.0093 -24.5836 -7.7024 -7.1250 0.0000 -0.0000 -6.9922 4.4528 6.4777 -0.0000 0.0000 0.0000 -12.8805 47.0683 12.4116 -140.5820 47.7213 -101.9926 0.0000 -0.0000 -78.2944 -0.8204 -57.6588 0.6932 7.1250 -0.0000 -0.0000 86.4381 -72.4633 -67.8841
-0.8869 17.8745 5.7698 -11.0196 -60.3629 4.8009 0.0000 0.0000 0.0000 -12.3044 23.5312 23.4234 0.6504 -5.1589 -14.3622 -1.3491 27.4739 -30.5581 0.0914 1.9504 5.3685 0.0000 0.0000 0.0000 22.3656 9.7362 14.7421 -0.9083 6.0731 -16.9968 -1.5020 -2.6358 22.4680 -2.0175 -8.9025 25.4908 4.0082 -6.4648 10.3476 3.3943 -7.9485 -0.7842 2.6210 -3.9940 -6.6597 18.6550 11.9247 -18.4087 -9.6455 13.5090 19.3986 -4.2681 6.5168 11.3122 0.0000 -0.0000 0.0000 -30.7871 -34.4208 -50.1440 20.3151 -31.0201 -5.6928 -0.0000 0.0000 -29.6899 17.7982 -24.5496 -7.5974 -7.1250 0.0000 -0.0000 -7.1190 4.5200 6.5879 0.0000 -0.0000 0.0000 -17.1774 40.9965 6.5105 -145.9973 44.0867 -105.8850 0.0000 -0.0000 -84.0343 -1.3662 -58.1241 1.1602 7.1250 -0.0000 -0.0000 87.8206 -72.6671 -69.5463
-0.8935 17.8731 5.7861 -11.0498 -60.6380 4.8511 0.0000 0.0000 0.0000 -12.3681 23.7254 23.5413 0.6667 -5.2219 -14.5424 -1.3719 27.5946 -30.6242 0.0834 1.8625 5.1259 0.0000 0.0000 0.0000 22.3464 9.8360 14.6911 -0.8901 6.0137 -16.8242 -1.5088 -2.4571 22.5600 -1.9907 -8.8466 25.3166 4.2144 -6.4227 10.2692 3.4215 -7.8670 -0.8684 2.5233 -3.9610 -6.7303 18.5855 11.9030 -18.4493 -9.8910 13.5469 19.2369 -4.3398 6.4996 11.2794 0.0000 0.0000 0.0000 -31.3785 -34.0337 -50.0218 20.3805 -31.0980 -5.7266 -0.0000 0.0000 -29.4529 17.7245 -24.6930 -7.6051 -7.1250 0.0000 -0.0000 -7.1757 4.3851 6.6595 0.0000 0.0000 0.0000 -16.6934 39.2615 7.3643 -146.8079 43.4772 -106.4459 0.0000 -0.0000 -84.1029 -1.6192 -58.0921 1.3747 7.1250 -0.0000 -0.0000 87.6771 -72.7519 -69.4971
-0.9017 17.8702 5.7966 -11.6852 -60.8525 5.3122 0.0000 0.0000 0.0000 -12.0099 23.9364 23.8450 0.6890 -5.3066 -14.7850 -1.3829 27.6675 -30.6848 0.0839 1.8684 5.1420 0.0000 0.0000 0.0000 22.7001 9.9488 14.7477 -0.8671 5.9374 -16.6029 -1.5014 -2.1826 22.5659 -1.9168 -8.6906 24.8322 4.6356 -6.3880 10.2959 3.5639 -7.7562 -0.9707 2.4415 -3.9199 -6.8924 18.3455 11.8072 -18.2751 -9.9889 13.5311 19.0570 -4.3504 6.4698 11.1663 -0.0000 0.0000 0.0000 -32.1103 -33.5507 -49.6577 20.4457 -31.1756 -5.7603 -0.0000 0.0000 -29.3824 17.6297 -24.8298 -7.6011 -7.1250 0.0000 -0.0000 -7.2447 4.2603 6.7416 -0.0000 0.0000 0.0000 -16.2394 37.7144 8.3040 -147.4119 43.0111 -106.8597 0.0000 -0.0000 -84.0714 -1.0794 -58.2917 0.9183 7.1250 -0.0000 -0.0000 88.4021 -72.5738 -70.0400
-0.9175 17.8578 5.7984 -14.3667 -60.9612 7.2230 0.0000 0.0000 0.0000 -10.2881 24.2912 24.6232 0.7149 -5.4032 -15.0622 -1.3895 27.6794 -30.6598 0.0954 1.9921 5.4838 0.0000 0.0000 0.0000 24.2811 10.2092 15.2378 -0.8399 5.8458 -16.3377 -1.4714 -2.0539 22.3626 -1.8914 -8.6362 24.6638 5.7518 -6.5473 10.7030 3.9313 -7.7877 -0.8669 2.2807 -3.9709 -7.1124 18.5541 11.9551 -18.1652 -10.1641 13.7382 18.9191 -4.4077 6.5617 11.1586 0.0000 -0.0000 0.0000 -32.4566 -32.7525 -49.8329 20.5150 -31.2578 -5.7962 -0.0000 0.0000 -29.4784 17.3164 -24.9436 -7.4906 -7.1250 0.0000 -0.0000 -7.4453 4.1924 6.9410 0.0000 -0.0000 0.0000 -15.7900 36.8326 9.0322 -147.7823 42.7200 -107.1117 0.0000 -0.0000 -83.9212 -0.3554 -58.3440 0.3025 7.1250 -0.0000 -0.0000 88.6843 -72.3313 -70.0502
